<svg xmlns="http://www.w3.org/2000/svg" xmlns:xlink="http://www.w3.org/1999/xlink" width="2000" zoomAndPan="magnify" viewBox="0 0 1500 1499.999933" height="2000" preserveAspectRatio="xMidYMid meet" version="1.0"><defs><clipPath id="38236b442a"><path d="M 148 206 L 1349 206 L 1349 1293 L 148 1293 Z M 148 206 " clip-rule="nonzero"/></clipPath><clipPath id="e84879010e"><path d="M 1349.140625 204.191406 L 1353.179688 1291.683594 L 150.9375 1296.152344 L 146.898438 208.65625 Z M 1349.140625 204.191406 " clip-rule="nonzero"/></clipPath><clipPath id="3631c385da"><path d="M 1349.140625 204.191406 L 1353.179688 1291.683594 L 150.9375 1296.152344 L 146.898438 208.65625 Z M 1349.140625 204.191406 " clip-rule="nonzero"/></clipPath></defs><g clip-path="url(#38236b442a)"><g clip-path="url(#e84879010e)"><g clip-path="url(#3631c385da)"><path fill="#ff3131" d="M 620.792969 874.503906 L 620.898438 882.546875 C 621.816406 944.480469 570.59375 1013.203125 518.855469 1014.390625 C 467.71875 1015.566406 416.070312 949.800781 415.527344 911.359375 C 415.527344 911.359375 414.0625 831.148438 413.007812 811.199219 C 412.785156 807.078125 412.625 802.964844 412.574219 798.859375 L 409.277344 574.472656 C 408.835938 542.507812 383.601562 516.3125 352.6875 515.441406 C 320.808594 514.542969 295.09375 541.976562 295.554688 574.804688 L 297.652344 724.1875 C 297.785156 733.394531 290.65625 740.789062 281.71875 740.746094 C 281.574219 740.742188 281.433594 740.742188 281.292969 740.738281 C 271.613281 740.707031 263.65625 732.554688 263.511719 722.59375 L 262.5625 654.683594 C 262.109375 622.722656 236.882812 596.519531 205.96875 595.648438 C 174.085938 594.746094 148.378906 622.179688 148.839844 655.015625 L 152.902344 944.988281 C 152.960938 949.492188 153.53125 953.878906 154.527344 958.09375 C 162.335938 1053.664062 198.582031 1134.859375 260.359375 1194.335938 C 326.28125 1257.800781 416.113281 1291.832031 520.109375 1292.722656 L 521.882812 1292.742188 C 626.101562 1293.648438 715.8125 1260.945312 781.316406 1198.148438 C 850.109375 1132.207031 885.65625 1038.996094 884.105469 928.597656 L 883.433594 880.613281 C 883.378906 876.515625 883.121094 872.453125 882.71875 868.441406 L 879.34375 607.3125 C 879.597656 595.542969 879.757812 587.367188 879.757812 587.367188 C 880.351562 548.929688 932.109375 483.242188 983.246094 484.496094 C 1034.988281 485.765625 1086.101562 554.566406 1085.09375 616.503906 L 1084.253906 669.925781 C 1084.222656 672.039062 1084.246094 674.140625 1084.320312 676.222656 C 1084.464844 681.140625 1084.585938 686.0625 1084.515625 691.019531 L 1082.152344 854.015625 L 1081.269531 911.113281 L 1080.023438 990.765625 C 1079.515625 1023.589844 1105.167969 1051.070312 1137.054688 1050.210938 C 1167.964844 1049.398438 1193.25 1023.234375 1193.738281 991.273438 L 1195.003906 910.300781 L 1195.433594 882.960938 C 1195.582031 873.671875 1203.019531 866.105469 1212.035156 866.046875 L 1212.488281 866.042969 C 1222.0625 865.976562 1229.6875 873.917969 1229.542969 883.796875 L 1228.664062 939.871094 C 1228.148438 972.695312 1253.820312 1000.175781 1285.695312 999.328125 C 1316.613281 998.503906 1341.886719 972.351562 1342.390625 940.378906 L 1346.871094 631.019531 C 1347.28125 627.007812 1347.554688 622.953125 1347.613281 618.847656 L 1348.367188 570.867188 C 1350.09375 460.46875 1314.699219 367.203125 1246.007812 301.148438 C 1180.609375 238.257812 1090.941406 205.402344 986.726562 206.144531 L 984.949219 206.15625 C 880.949219 206.894531 791.074219 240.777344 725.050781 304.136719 C 679.398438 347.941406 647.691406 403.605469 630.96875 468.140625 M 407.199219 425.902344 L 406.585938 381.917969 C 406.128906 349.574219 380.296875 323.136719 348.894531 322.863281 C 317.476562 322.589844 292.386719 348.582031 292.84375 380.921875 L 293.457031 424.910156 C 293.914062 457.253906 319.75 483.691406 351.148438 483.964844 C 382.566406 484.238281 407.660156 458.242188 407.199219 425.902344 Z M 1284.230469 1022.984375 C 1315.640625 1022.769531 1340.699219 1048.808594 1340.183594 1081.140625 L 1339.507812 1125.132812 C 1339.007812 1157.46875 1313.121094 1183.867188 1281.722656 1184.089844 C 1250.3125 1184.308594 1225.253906 1158.277344 1225.757812 1125.929688 L 1226.445312 1081.953125 C 1226.949219 1049.621094 1252.816406 1023.21875 1284.230469 1022.984375 " fill-opacity="1" fill-rule="nonzero"/></g></g></g></svg>